<?xml version="1.0" standalone="no"?>
<!DOCTYPE svg PUBLIC "-//W3C//DTD SVG 20010904//EN"
 "http://www.w3.org/TR/2001/REC-SVG-20010904/DTD/svg10.dtd">
<svg version="1.0" xmlns="http://www.w3.org/2000/svg"
 width="512.000000pt" height="512.000000pt" viewBox="0 0 512.000000 512.000000"
 preserveAspectRatio="xMidYMid meet">

<g transform="translate(0.000000,512.000000) scale(0.100000,-0.100000)"
fill="#000000" stroke="none">
<path d="M145 3995 c-5 -2 -22 -6 -37 -9 -69 -15 -118 -96 -104 -173 7 -33 46
-77 322 -353 l314 -315 0 -946 0 -945 23 -44 c27 -55 71 -82 132 -82 42 0 81
22 523 293 262 161 515 317 562 346 l85 52 255 -253 c140 -140 265 -259 277
-265 30 -15 99 -14 131 3 15 8 579 567 1254 1243 1082 1084 1227 1232 1233
1265 16 86 -32 159 -116 177 -35 8 -773 11 -2447 10 -1318 0 -2401 -2 -2407
-4z m2833 -300 c-3 -3 -484 -79 -1069 -169 l-1064 -164 -162 161 c-90 89 -163
165 -163 169 0 5 554 8 1232 8 677 0 1229 -2 1226 -5z m495 -1137 l-913 -913
-425 425 c-233 233 -422 426 -419 429 5 6 2645 968 2659 970 5 1 -401 -410
-902 -911z m-58 882 c-27 -11 -502 -184 -1054 -384 -552 -201 -1012 -373
-1023 -383 -11 -10 -104 -184 -207 -388 l-186 -370 -3 287 c-1 158 -1 418 0
579 l3 293 1240 192 c682 105 1249 192 1260 192 11 1 -2 -8 -30 -18z m-1800
-1270 c78 -78 126 -133 120 -138 -15 -13 -553 -342 -559 -342 -3 0 63 137 146
305 84 168 155 305 158 305 3 0 64 -58 135 -130z"/>
</g>
</svg>
